<svg width="28" height="29" viewBox="0 0 28 29" fill="none" xmlns="http://www.w3.org/2000/svg">
<path d="M27.8958 2.74899V26.0424C27.8954 26.5746 27.6838 27.085 27.3075 27.4613C26.9311 27.8376 26.4208 28.0493 25.8886 28.0497H2.59519C2.06269 28.0497 1.55199 27.8382 1.17531 27.4618C0.798642 27.0854 0.586828 26.5749 0.586426 26.0424L0.586426 2.74899C0.586426 2.21624 0.798062 1.7053 1.17478 1.32859C1.55149 0.951871 2.06243 0.740234 2.59519 0.740234H25.8886C26.4211 0.740637 26.9316 0.952451 27.308 1.32912C27.6844 1.70579 27.8958 2.2165 27.8958 2.74899ZM8.61843 11.1815H4.60243V24.0337H8.61843V11.1815ZM8.97952 6.76348C8.98356 6.1501 8.74386 5.56022 8.31313 5.12351C7.88239 4.6868 7.29587 4.439 6.6825 4.43459H6.61119C6.152 4.4401 5.70457 4.58055 5.3246 4.83844C4.94463 5.09634 4.6489 5.46029 4.47423 5.88499C4.29955 6.3097 4.25365 6.7764 4.34223 7.227C4.4308 7.6776 4.64995 8.09219 4.97239 8.41918C5.29483 8.74616 5.70632 8.97109 6.15564 9.06597C6.60495 9.16084 7.07225 9.12147 7.49936 8.95276C7.92646 8.78404 8.29452 8.49344 8.55771 8.11711C8.82089 7.74079 8.96758 7.29537 8.97952 6.8363V6.76348ZM23.8798 16.2262C23.8798 12.3619 21.422 10.8599 18.9808 10.8599C18.1813 10.8199 17.3852 10.9902 16.6721 11.3538C15.9589 11.7175 15.3535 12.2618 14.9163 12.9324H14.804V11.1815H11.0277V24.0337H15.0437V17.1987C14.9838 16.4976 15.2035 15.8012 15.6547 15.2612C16.106 14.7213 16.7524 14.3815 17.453 14.3161H17.6047C18.8822 14.3161 19.8305 15.1186 19.8305 17.1441V24.0276H23.8465L23.8798 16.2262Z" fill="white"/>
</svg>
