<svg xmlns="http://www.w3.org/2000/svg" width="58" height="58" viewBox="0 0 58 58">
  <g id="vuesax_bold_battery-charging" data-name="vuesax/bold/battery-charging" transform="translate(-428 -188)">
    <g id="battery-charging" transform="translate(428 188)">
      <path id="Vector" d="M2.948.048C2.61.024,2.175,0,1.692,0A1.681,1.681,0,0,0,0,1.692V12.929a1.681,1.681,0,0,0,1.692,1.692c.483,0,.894-.024,1.305-.048,3.77-.435,3.77-3.093,3.77-5.027v-4.5C6.767,3.118,6.767.459,2.948.048Z" transform="translate(46.4 21.702)" fill="#f97316"/>
      <path id="Vector-2" data-name="Vector" d="M26.414,0H12.929C3.021,0,0,3.021,0,12.929v8.99c0,9.908,3.021,12.929,12.929,12.929H26.414c9.908,0,12.929-3.021,12.929-12.929v-8.99C39.343,3.021,36.323,0,26.414,0Zm-.967,21.484a1.073,1.073,0,0,1-.193.266l-4.519,5.292a1.817,1.817,0,0,1-2.755-2.368l4.35-5.1a.246.246,0,0,0-.048-.217.278.278,0,0,0-.266-.145H17.207A3.915,3.915,0,0,1,13.8,13.34l4.132-5.462a1.812,1.812,0,1,1,2.9,2.175l-3.987,5.293c.073-.1.073,0,.121.121a.278.278,0,0,0,.266.145h4.858A3.9,3.9,0,0,1,25.5,17.569,4.03,4.03,0,0,1,25.448,21.484Z" transform="translate(4.833 11.576)" fill="#f97316"/>
      <path id="Vector-3" data-name="Vector" d="M0,0H58V58H0Z" transform="translate(58 58) rotate(180)" fill="none" opacity="0"/>
    </g>
  </g>
</svg>
