<svg xmlns="http://www.w3.org/2000/svg" width="58" height="58" viewBox="0 0 58 58">
  <g id="vuesax_bold_briefcase" data-name="vuesax/bold/briefcase" transform="translate(-108 -188)">
    <path id="Vector" d="M46.127,12.591c-2.054-2.272-5.486-3.407-10.464-3.407h-.58v-.1C35.083,5.027,35.083,0,26,0H22.323c-9.087,0-9.087,5.051-9.087,9.087v.121h-.58c-5,0-8.41,1.136-10.464,3.407C-.2,15.273-.128,18.85.114,21.291l.024.169L.38,24s1.74,1.16,2.61,1.643c.338.218.7.411,1.063.6a41.483,41.483,0,0,0,13.292,4.543c.218,2.272,1.208,4.93,6.5,4.93s6.332-2.634,6.5-4.978a40.669,40.669,0,0,0,13.993-5.027c.145-.073.242-.145.362-.218a33.625,33.625,0,0,0,3.287-2.175l.1-.87.121-1.136c.024-.145.024-.266.048-.435C48.447,18.439,48.4,15.1,46.127,12.591ZM26.794,29.145c0,2.562,0,2.948-2.973,2.948s-2.972-.459-2.972-2.924V26.124h5.945ZM16.692,9.183v-.1c0-4.108,0-5.631,5.631-5.631H26c5.631,0,5.631,1.547,5.631,5.631v.121H16.692Z" transform="translate(112.84 192.278)" fill="#f97316"/>
    <path id="Vector-2" data-name="Vector" d="M46.738,0,45.675,11.713c-.507,4.833-2.489,9.763-13.123,9.763H14.137c-10.633,0-12.615-4.93-13.122-9.739L0,.573s9.28,4.4,13.533,5.317c1.329,3.528,4.616,5.413,9.5,5.413,4.833,0,8.168-1.957,9.5-5.486C37.023,4.85,46.738,0,46.738,0Z" transform="translate(113.655 220.246)" fill="#f97316"/>
    <path id="Vector-3" data-name="Vector" d="M0,0H58V58H0Z" transform="translate(166 246) rotate(180)" fill="none" opacity="0"/>
  </g>
</svg>
