<svg xmlns="http://www.w3.org/2000/svg" width="58" height="58" viewBox="0 0 58 58">
  <g id="vuesax_bold_judge" data-name="vuesax/bold/judge" transform="translate(-684 -572)">
    <g id="judge" transform="translate(684 572)">
      <path id="Vector" d="M0,0H58V58H0Z" fill="none" opacity="0"/>
      <path id="Vector-2" data-name="Vector" d="M14.524,14.524a1.809,1.809,0,0,1-2.562,0L0,2.562,1.281,1.281,2.562,0,14.524,11.962A1.823,1.823,0,0,1,14.524,14.524Z" transform="translate(35.114 31.489)" fill="#f97316"/>
      <path id="Vector-3" data-name="Vector" d="M7.063.71,21.079,14.727a2.407,2.407,0,0,1,0,3.408l-2.175,2.2a4.93,4.93,0,0,1-6.984,0L1.432,9.845a4.945,4.945,0,0,1,0-6.96l2.2-2.2A2.459,2.459,0,0,1,7.063.71Z" transform="translate(8.573 21.717)" fill="#f97316"/>
      <path id="Vector-4" data-name="Vector" d="M27.381,18.9l-9.208,9.183a2.45,2.45,0,0,1-3.48,0L.725,14.119a2.451,2.451,0,0,1,0-3.48L9.933,1.432a4.945,4.945,0,0,1,6.96,0L27.381,11.92A4.974,4.974,0,0,1,27.381,18.9Z" transform="translate(17.545 6)" fill="#f97316"/>
      <path id="Vector-5" data-name="Vector" d="M16.313,3.625H1.813A1.826,1.826,0,0,1,0,1.813,1.826,1.826,0,0,1,1.813,0h14.5a1.826,1.826,0,0,1,1.813,1.813A1.826,1.826,0,0,1,16.313,3.625Z" transform="translate(3.021 48.938)" fill="#f97316"/>
    </g>
  </g>
</svg>
